# xmcd
#
# Track frame offsets:
#  150
#  27775
#  44060
#  61427
#  84702
#  97432
#  119062
#  149957
#  179630
#  206605
#  222675
#  234559
#  268910
#  287887
#  300622
#  323680
#
# Disc length: 4667 seconds
#
# Revision: 0
# Processed by: cddbd v1.4PL0 Copyright (c) Steve Scherf et al.
# Submitted via: AltoMP3_Maker 3.0
#
DISCID=16123910
DTITLE=Various Artist - Down At The Rib Shack
DYEAR=1900
DGENRE=
TTITLE0=Left Overs (Felix And The Cats)
TTITLE1=Keep Holdin' On (The Stratocruisers)
TTITLE2=Loose Woman (Little Brother)
TTITLE3=Rainin' In My Heart (SnakeDoctor)
TTITLE4=RedLight (Rockabelly Slim)
TTITLE5=Dust My Broom (The Famous Hoods)
TTITLE6=Gamblers Blues (The Lee Griffin Band)
TTITLE7=Every Girl I See (Ju Ju Root)
TTITLE8=Little Red Rooster (Mr. Virgil Williams)
TTITLE9=Partners For Life (Bluesfish)
TTITLE10=Juke Joints Jump (SpikeDriver)
TTITLE11=Blues After Hours (Felix And The Cats)
TTITLE12=She Dont Want Me No More (The Rude Northeners)
TTITLE13=Aint It A Shame (The Prowlers)
TTITLE14=Walkin Blues (The Jump Kings)
TTITLE15=Gimme Back My Wig (Interstate BrickFace)
EXTD=
EXTT0=
EXTT1=
EXTT2=
EXTT3=
EXTT4=
EXTT5=
EXTT6=
EXTT7=
EXTT8=
EXTT9=
EXTT10=
EXTT11=
EXTT12=
EXTT13=
EXTT14=
EXTT15=
PLAYORDER=
